HIERARCHY
ROOT Hips
{
	OFFSET 0.000000 0.000000 0.000000
	CHANNELS 6 Xposition Yposition Zposition Zrotation Yrotation Xrotation 
	JOINT LHipJoint
	{
		OFFSET 0.000000 0.000000 0.000000
		CHANNELS 3 Zrotation Yrotation Xrotation
		JOINT LeftUpLeg
		{
			OFFSET 1.363060 -1.794630 0.839290
			CHANNELS 3 Zrotation Yrotation Xrotation
			JOINT LeftLeg
			{
				OFFSET 2.448110 -6.726130 0.000000
				CHANNELS 3 Zrotation Yrotation Xrotation
				JOINT LeftFoot
				{
					OFFSET 2.562200 -7.039590 0.000000
					CHANNELS 3 Zrotation Yrotation Xrotation
					JOINT LeftToeBase
					{
						OFFSET 0.157640 -0.433110 2.322550
						CHANNELS 3 Zrotation Yrotation Xrotation
						End Site
						{
							OFFSET 0.000000 0.000000 0.000000
						}
					}
				}
			}
		}
	}
	JOINT RHipJoint
	{
		OFFSET 0.000000 0.000000 0.000000
		CHANNELS 3 Zrotation Yrotation Xrotation
		JOINT RightUpLeg
		{
			OFFSET -1.305520 -1.794630 0.839290
			CHANNELS 3 Zrotation Yrotation Xrotation
			JOINT RightLeg
			{
				OFFSET -2.542530 -6.985550 0.000000
				CHANNELS 3 Zrotation Yrotation Xrotation
				JOINT RightFoot
				{
					OFFSET -2.568260 -7.056230 0.000000
					CHANNELS 3 Zrotation Yrotation Xrotation
					JOINT RightToeBase
					{
						OFFSET -0.164730 -0.452590 2.363150
						CHANNELS 3 Zrotation Yrotation Xrotation
						End Site
						{
							OFFSET 0.000000 0.000000 0.000000
						}
					}
				}
			}
		}
	}
}
MOTION
Frames: 27
Frame Time: 0.008333
1.747503 16.892490 -1.335005 8.436037 -87.498170 -13.872928 -10.765541 3.115071 2.402336 -1.363627 2.054304 -18.019397 0.370877 2.577597 48.465874 3.002043 20.846763 1.223668 3.023000 -0.000000 -51.818500 10.123455 -1.749105 -2.379069 7.568935 -21.049733 -1.031355 1.290704 -0.775081 22.632040 -2.598659 -11.720803 -13.178131 0.955800 -0.000000 -62.059100
1.772379 16.898295 -1.361489 8.893872 -87.606458 -14.318975 -10.789140 2.987428 2.400751 -1.439996 1.910516 -19.906191 0.528433 2.701009 51.165463 3.088572 21.399187 2.231903 3.454000 -0.000000 -48.903900 10.152123 -1.743238 -2.393751 7.579998 -21.304645 -1.136880 1.320337 -0.756501 22.498604 -2.516065 -11.317371 -13.063121 0.913300 0.000000 -62.174100
1.799459 16.903906 -1.387654 9.998927 -87.770087 -15.422652 -10.782328 2.851489 2.356709 -1.576462 1.957620 -21.843461 0.671341 2.820542 53.814196 3.170554 21.900550 2.977023 3.801300 -0.000001 -45.660100 10.213495 -1.728257 -2.395344 7.558320 -21.493055 -1.274119 1.341780 -0.742377 22.437581 -2.437539 -10.930389 -12.971407 0.877900 -0.000000 -62.288600
1.829159 16.909141 -1.413863 11.821296 -87.973814 -17.256826 -10.740833 2.706792 2.266562 -1.781705 2.189498 -23.830307 0.801980 2.937291 56.400727 3.246416 22.350221 3.441888 4.052600 0.000000 -42.385900 10.310399 -1.703941 -2.385179 7.509011 -21.604308 -1.437940 1.353839 -0.733763 22.449838 -2.368026 -10.584272 -12.910511 0.851400 0.000000 -62.371000
1.861624 16.913867 -1.440442 14.395477 -88.194980 -19.855750 -10.663451 2.550822 2.128612 -2.060524 2.591183 -25.868159 0.923653 3.051569 58.924088 3.313910 22.738092 3.618167 4.196700 -0.000000 -39.231800 10.442409 -1.672782 -2.365161 7.440504 -21.633282 -1.621135 1.356575 -0.731988 22.528904 -2.311816 -10.301900 -12.881942 0.834500 0.000000 -62.410500
1.896874 16.918044 -1.467484 17.716262 -88.410607 -23.207834 -10.552582 2.377860 1.946303 -2.416813 3.137570 -27.969365 1.040984 3.161501 61.384425 3.372813 23.062726 3.551685 4.244500 0.000000 -36.567499 10.604702 -1.639320 -2.333396 7.370089 -21.565788 -1.829327 1.350838 -0.738735 22.672890 -2.274581 -10.111693 -12.891488 0.828900 -0.000001 -62.381500
1.935275 16.921403 -1.495061 21.636039 -88.589774 -27.174632 -10.417083 2.182688 1.719496 -2.850487 3.800790 -30.126114 1.156792 3.268444 63.792971 3.419849 23.300119 3.257538 4.191400 -0.000000 -34.363000 10.786960 -1.607525 -2.300005 7.296923 -21.425386 -2.038233 1.338724 -0.755769 22.865393 -2.256591 -10.017852 -12.932410 0.833100 -0.000000 -62.285500
1.976290 16.924110 -1.523130 25.978355 -88.713724 -31.569914 -10.266662 1.961711 1.457619 -3.367731 4.547210 -32.352307 1.273757 3.372114 66.150659 3.454953 23.445385 2.806186 4.060300 0.000000 -32.784500 10.976158 -1.581005 -2.263718 7.231423 -21.212675 -2.254609 1.321733 -0.783016 23.098579 -2.260114 -10.031866 -13.003040 0.847300 0.000000 -62.117401
2.019875 16.926097 -1.551652 30.414062 -88.768729 -36.069809 -10.112841 1.716671 1.167702 -3.971690 5.346410 -34.646627 1.392870 3.476332 68.458722 3.477093 23.490004 2.261335 3.873000 -0.000000 -31.905100 11.157882 -1.558646 -2.231498 7.169476 -20.952814 -2.464550 1.300624 -0.818888 23.357510 -2.282950 -10.144252 -13.093315 0.869200 0.000001 -61.893100
2.065722 16.927410 -1.580463 34.530734 -88.756247 -40.264448 -9.964499 1.456008 0.855306 -4.660893 6.179560 -37.008511 1.513648 3.588426 70.720994 3.483345 23.413686 1.648298 3.636500 -0.000001 -31.419101 11.319604 -1.535892 -2.210392 7.109686 -20.669898 -2.652305 1.275091 -0.860023 23.631065 -2.322005 -10.339714 -13.195739 0.897500 0.000000 -61.604000
2.113157 16.928269 -1.609540 38.031045 -88.683322 -43.854861 -9.821138 1.190686 0.531362 -5.440130 7.019916 -39.440653 1.637071 3.711664 72.923731 3.476165 23.236257 1.068158 3.395900 -0.000000 -31.637800 11.458806 -1.507184 -2.202437 7.047015 -20.389235 -2.814014 1.244200 -0.901483 23.903934 -2.372780 -10.597704 -13.296710 0.928699 -0.000000 -61.288500
2.161699 16.928792 -1.638816 40.680484 -88.563356 -46.608837 -9.679319 0.932021 0.202033 -6.309196 7.852883 -41.944652 1.763354 3.849860 75.061479 3.455510 22.960515 0.543692 3.163100 0.000000 -32.273200 11.576440 -1.467877 -2.210626 6.979245 -20.135593 -2.942163 1.207569 -0.939147 24.163586 -2.430306 -10.894891 -13.385429 0.960100 0.000000 -60.970000
2.210908 16.929089 -1.668181 42.396007 -88.411596 -48.440485 -9.533664 0.686993 -0.127555 -7.264705 8.666324 -44.523005 1.893479 4.003104 77.121344 3.423224 22.602206 0.121457 2.959900 0.000000 -33.380100 11.675260 -1.415944 -2.235250 6.912841 -19.917040 -3.036128 1.165398 -0.970778 24.406245 -2.492188 -11.218909 -13.460017 0.990800 0.000001 -60.637300
2.260099 16.929354 -1.697706 43.245642 -88.233726 -49.416912 -9.377731 0.460775 -0.451036 -8.314954 9.444514 -47.179866 2.027588 4.169288 79.093198 3.382566 22.185840 -0.207502 2.787700 -0.000000 -34.554400 11.760863 -1.352428 -2.275654 6.841013 -19.758427 -3.098132 1.119345 -0.994487 24.618957 -2.552905 -11.544101 -13.509852 1.017000 0.000000 -60.337400
2.309044 16.929584 -1.727341 43.367794 -88.040587 -49.670431 -9.207926 0.252507 -0.765387 -9.457327 10.177869 -49.920487 2.165615 4.344511 80.959289 3.337265 21.738331 -0.419496 2.658100 -0.000000 -35.943100 11.834259 -1.279574 -2.328821 6.776106 -19.645342 -3.136218 1.070541 -1.011292 24.808027 -2.613493 -11.873284 -13.542132 1.040101 0.000000 -60.044401
2.357139 16.929834 -1.757200 42.960666 -87.833848 -49.393680 -9.020800 0.061914 -1.066478 -10.699499 10.852502 -52.749369 2.306152 4.524837 82.707485 3.291756 21.290775 -0.545710 2.563500 0.000000 -37.200400 11.898001 -1.200963 -2.391926 6.716413 -19.580325 -3.158468 1.020922 -1.021980 24.971622 -2.671764 -12.195248 -13.555289 1.059000 0.000000 -59.784499
2.404373 16.929945 -1.787294 42.212836 -87.618003 -48.773135 -8.814490 -0.113343 -1.352092 -12.043872 11.456286 -55.669974 2.447155 4.706310 84.323822 3.250157 20.872289 -0.610696 2.497900 -0.000001 -38.209900 11.952779 -1.119492 -2.462015 6.666586 -19.548987 -3.173898 0.971745 -1.028615 25.117662 -2.728577 -12.512098 -13.556473 1.074900 0.000000 -59.547999
2.450533 16.929788 -1.817655 41.303691 -87.399793 -47.980606 -8.587986 -0.276051 -1.621318 -13.486597 11.978060 -58.681974 2.586037 4.885518 85.795006 3.216088 20.508227 -0.638464 2.456000 0.000000 -38.941200 11.998466 -1.037815 -2.535650 6.636389 -19.523046 -3.190378 0.923535 -1.033848 25.258421 -2.787257 -12.837267 -13.556220 1.090800 0.000000 -59.311600
2.495809 16.929079 -1.848314 40.375068 -87.184803 -47.158120 -8.340655 -0.427930 -1.874119 -15.024074 12.406588 -61.781034 2.719770 5.059941 87.112065 3.192156 20.217088 -0.669617 2.426500 -0.000000 -39.304500 12.035950 -0.957226 -2.610552 6.630763 -19.477814 -3.213263 0.876441 -1.040215 25.405950 -2.850465 -13.181151 -13.564632 1.109299 0.000000 -59.062100
2.539881 16.927665 -1.879238 39.530570 -86.977696 -46.404136 -8.072756 -0.569762 -2.108134 -16.647239 12.723974 -64.957910 2.845950 5.227037 88.268215 3.181681 20.020732 -0.720208 2.407499 -0.000000 -39.330399 12.066442 -0.878889 -2.685535 6.650296 -19.399042 -3.245739 0.830743 -1.049430 25.567773 -2.919446 -13.548109 -13.586885 1.132000 -0.000000 -58.796500
2.582935 16.925290 -1.910373 38.824131 -86.783693 -45.775629 -7.786036 -0.702374 -2.322743 -18.339123 12.915601 -68.195807 2.962302 5.385038 89.260236 3.186409 19.929580 -0.804772 2.395700 0.000000 -39.121600 12.090761 -0.802486 -2.760860 6.697166 -19.270760 -3.286789 0.786092 -1.063174 25.751443 -2.996114 -13.945997 -13.628663 1.160900 -0.000000 -58.503100
2.625085 16.921744 -1.941665 38.300862 -86.610451 -45.317360 -7.482917 -0.826074 -2.520365 -20.080327 12.979371 -71.478280 3.066636 5.534338 90.093304 3.205611 19.935044 -0.967588 2.375201 -0.000000 -38.599600 12.109060 -0.727602 -2.834712 6.778859 -19.062851 -3.335260 0.741346 -1.083403 25.970524 -3.085061 -14.394200 -13.701739 1.200200 0.000001 -58.149000
2.666014 16.916930 -1.972876 37.920810 -86.456819 -44.992366 -7.168069 -0.940286 -2.695576 -21.841765 12.890990 -74.777612 3.158646 5.673130 90.770673 3.241426 20.046802 -1.178920 2.356100 0.000000 -38.084300 12.122088 -0.653705 -2.911441 6.886340 -18.799383 -3.384869 0.697489 -1.109295 26.216023 -3.182255 -14.874564 -13.797417 1.247600 0.000001 -57.760900
2.705638 16.910762 -2.003909 37.687832 -86.328446 -44.802556 -6.845384 -1.044737 -2.850718 -23.600063 12.656940 -78.077958 3.237212 5.803395 91.305055 3.291336 20.240773 -1.481325 2.319700 0.000000 -37.485000 12.128942 -0.580578 -2.987447 7.029741 -18.452575 -3.436669 0.653390 -1.141907 26.499842 -3.292312 -15.406431 -13.927049 1.307700 0.000000 -57.299100
2.743451 16.903322 -2.034341 37.495187 -86.221491 -44.645110 -6.522253 -1.138217 -2.978775 -25.315451 12.255747 -81.348055 3.303189 5.924784 91.706535 3.354815 20.506555 -1.847843 2.271501 0.000000 -37.004600 12.129031 -0.508028 -3.068884 7.197916 -18.069172 -3.482903 0.610930 -1.178767 26.803137 -3.407918 -15.957791 -14.073904 1.375500 -0.000001 -56.813200
2.779317 16.894577 -2.064011 37.322153 -86.140071 -44.495130 -6.203074 -1.220442 -3.080013 -26.962955 11.697921 -84.577397 3.355837 6.039525 91.983879 3.428117 20.811349 -2.295565 2.199000 0.000000 -36.681800 12.120500 -0.436449 -3.150565 7.403546 -17.627302 -3.530168 0.569634 -1.219983 27.135079 -3.532701 -16.542790 -14.249439 1.455700 -0.000000 -56.256500
2.812684 16.884680 -2.092439 37.047875 -86.080311 -44.234143 -5.896159 -1.290088 -3.147080 -28.499212 10.970489 -87.738192 3.395301 6.148263 92.141746 3.507169 21.122077 -2.804994 2.102700 -0.000000 -36.540999 12.101850 -0.366375 -3.238119 7.637711 -17.178480 -3.573793 0.531799 -1.262547 27.475356 -3.658413 -17.125207 -14.436816 1.542500 -0.000000 -55.682400
